<?xml version="1.0" encoding="utf-8"?>
<!-- Generator: Adobe Illustrator 24.1.1, SVG Export Plug-In . SVG Version: 6.00 Build 0)  -->
<svg version="1.1" id="Layer_1" xmlns="http://www.w3.org/2000/svg" xmlns:xlink="http://www.w3.org/1999/xlink" x="0px" y="0px"
	 viewBox="0 0 1400 474" style="enable-background:new 0 0 1400 474;" xml:space="preserve">
<style type="text/css">
	.st0{fill:#3B56A6;}
	.st1{fill:#E6E6E6;}
	.st2{fill:#FFFFFF;}
</style>
<path class="st0" d="M73.93,342.12c279.63-81.14,406.15-277.85,279.63-81.14S73.93,342.12,73.93,342.12z"/>
<path class="st1" d="M73.89,342.51C335.58,214.87,426.71-0.53,335.58,214.87S73.89,342.51,73.89,342.51z"/>
<path class="st2" d="M72.41,342.38c221.27-189.25,255.4-420.62,221.27-189.25S72.41,342.38,72.41,342.38z"/>
<g>
	<path class="st2" d="M478.91,244.59h32.22l-9.88,46.31c-4.7,1.68-9.28,2.91-13.75,3.68c-4.47,0.78-9.47,1.16-15.01,1.16
		c-10.95,0-19.44-3.06-25.48-9.19c-6.04-6.12-9.06-14.79-9.06-25.99c0-11.07,2.15-21.21,6.45-30.39
		c4.3-9.19,10.38-16.32,18.25-21.39c7.87-5.08,16.81-7.61,26.84-7.61c4.66,0,9.12,0.43,13.4,1.29c4.28,0.86,8.58,2.32,12.9,4.37
		l-5.66,12.77c-7.3-3.61-14.31-5.41-21.02-5.41c-6.63,0-12.65,1.9-18.06,5.69c-5.41,3.8-9.68,9.21-12.81,16.23
		c-3.13,7.03-4.69,14.84-4.69,23.44c0,7.68,1.87,13.49,5.6,17.43c3.73,3.94,9.04,5.92,15.92,5.92c4.57,0,9.08-0.69,13.53-2.08
		l5.03-23.35H476.2L478.91,244.59z"/>
	<path class="st2" d="M585.38,250.95c0,8.47-1.53,16.18-4.59,23.13c-3.06,6.94-7.27,12.27-12.62,15.98
		c-5.35,3.71-11.51,5.57-18.47,5.57c-8.05,0-14.45-2.4-19.19-7.21c-4.74-4.8-7.11-11.34-7.11-19.6c0-8.35,1.5-16,4.5-22.97
		c3-6.96,7.21-12.39,12.62-16.27c5.41-3.88,11.66-5.82,18.75-5.82c8.18,0,14.58,2.43,19.19,7.3
		C583.07,235.93,585.38,242.56,585.38,250.95z M570.46,250.32c0-4.49-1.03-8-3.08-10.54c-2.06-2.54-4.99-3.81-8.81-3.81
		c-3.9,0-7.39,1.5-10.48,4.5c-3.08,3-5.47,7.07-7.17,12.21c-1.7,5.14-2.55,10.62-2.55,16.46c0,4.66,1.04,8.22,3.11,10.7
		c2.08,2.48,5.15,3.71,9.22,3.71c3.78,0,7.17-1.43,10.19-4.28c3.02-2.85,5.37-6.85,7.05-11.99
		C569.62,262.14,570.46,256.48,570.46,250.32z"/>
	<path class="st2" d="M640.56,273.1c0,7.26-2.48,12.85-7.43,16.77c-4.95,3.92-11.83,5.88-20.64,5.88c-7.97,0-14.72-1.4-20.26-4.22
		v-12.77c6.42,3.78,12.96,5.66,19.63,5.66c4.07,0,7.36-0.84,9.88-2.52c2.52-1.68,3.78-3.96,3.78-6.86c0-2.14-0.72-3.97-2.17-5.51
		c-1.45-1.53-4.42-3.58-8.9-6.14c-5.24-2.81-8.95-5.67-11.11-8.59c-2.16-2.92-3.24-6.37-3.24-10.35c0-6.5,2.24-11.6,6.73-15.29
		c4.49-3.69,10.55-5.54,18.19-5.54c8.22,0,15.48,1.76,21.77,5.29L642.01,240c-5.87-3.19-11.45-4.78-16.74-4.78
		c-3.06,0-5.55,0.69-7.46,2.08c-1.91,1.38-2.86,3.31-2.86,5.79c0,1.89,0.69,3.57,2.08,5.03c1.38,1.47,4.22,3.36,8.5,5.66
		c4.4,2.48,7.53,4.59,9.38,6.36c1.85,1.76,3.25,3.68,4.22,5.76C640.08,267.97,640.56,270.37,640.56,273.1z"/>
	<path class="st2" d="M667.06,294.49h-14.72l20.77-97.91h14.79L667.06,294.49z"/>
	<path class="st2" d="M702.61,294.49h-14.85l14.85-69.6h14.79L702.61,294.49z M705.57,207.78c0-2.85,0.82-5.16,2.45-6.92
		c1.64-1.76,3.94-2.64,6.92-2.64c2.22,0,4.03,0.56,5.41,1.67c1.38,1.11,2.08,2.8,2.08,5.07c0,2.98-0.84,5.33-2.52,7.05
		c-1.68,1.72-3.88,2.58-6.61,2.58c-2.22,0-4.07-0.54-5.54-1.64C706.3,211.85,705.57,210.13,705.57,207.78z"/>
	<path class="st2" d="M764.4,294.49l8.94-42.29c0.75-3.78,1.13-6.52,1.13-8.24c0-5.5-2.71-8.24-8.12-8.24c-3.02,0-6,1.2-8.94,3.59
		c-2.94,2.39-5.58,5.84-7.93,10.35c-2.35,4.51-4.11,9.62-5.29,15.32l-6.17,29.51h-14.85l14.85-69.6h11.58l-1.32,12.9h0.57
		c3.48-4.95,7.07-8.55,10.76-10.79c3.69-2.24,7.7-3.37,12.02-3.37c5.62,0,9.97,1.59,13.06,4.78c3.08,3.19,4.63,7.72,4.63,13.59
		c0,2.89-0.48,6.69-1.45,11.39l-8.62,41.09H764.4z"/>
	<path class="st2" d="M868.17,224.9l-1.95,8.62l-12.08,2.08c1.17,2.43,1.76,5.31,1.76,8.62c0,8.1-2.5,14.53-7.49,19.29
		c-4.99,4.76-11.68,7.14-20.07,7.14c-2.18,0-4.11-0.17-5.79-0.5c-4.66,1.68-6.99,3.86-6.99,6.54c0,1.59,0.66,2.69,1.98,3.27
		c1.32,0.59,3.24,1.05,5.76,1.38l7.99,1.01c7.38,0.92,12.67,2.76,15.86,5.51c3.19,2.75,4.78,6.68,4.78,11.8
		c0,8.22-3.17,14.58-9.5,19.07c-6.33,4.49-15.33,6.73-27,6.73c-8.52,0-15.11-1.57-19.79-4.72c-4.68-3.15-7.02-7.47-7.02-12.96
		c0-4.32,1.46-8.05,4.37-11.2c2.92-3.15,7.6-5.81,14.06-7.99c-3.19-1.89-4.78-4.55-4.78-7.99c0-2.89,0.98-5.4,2.93-7.52
		c1.95-2.12,5.02-4.16,9.22-6.14c-5.66-3.4-8.5-8.68-8.5-15.86c0-8.22,2.57-14.85,7.71-19.88c5.14-5.03,11.92-7.55,20.36-7.55
		c3.36,0,6.71,0.42,10.07,1.26H868.17z M816.63,293.36c-4.7,0.76-8.31,2.24-10.82,4.47c-2.52,2.22-3.78,4.97-3.78,8.24
		c0,2.73,1.16,4.9,3.49,6.51c2.33,1.61,5.88,2.42,10.67,2.42c6.84,0,12.19-1.13,16.05-3.4c3.86-2.27,5.79-5.52,5.79-9.75
		c0-2.14-0.94-3.82-2.83-5.03c-1.89-1.22-5.2-2.08-9.94-2.58L816.63,293.36z M833.62,233.52c-2.73,0-5.12,0.81-7.17,2.42
		c-2.06,1.62-3.65,3.82-4.78,6.61c-1.13,2.79-1.7,5.84-1.7,9.16c0,2.98,0.74,5.28,2.23,6.89c1.49,1.62,3.62,2.42,6.39,2.42
		c2.73,0,5.09-0.82,7.08-2.45c1.99-1.64,3.54-3.88,4.66-6.73c1.11-2.85,1.67-5.98,1.67-9.38
		C841.99,236.5,839.2,233.52,833.62,233.52z"/>
	<path class="st2" d="M955.38,267.56c0,8.81-3.03,15.71-9.09,20.7c-6.06,4.99-14.42,7.49-25.08,7.49c-8.81,0-16.11-1.57-21.9-4.72
		v-14.1c7.26,4.07,14.6,6.1,22.02,6.1c5.75,0,10.28-1.23,13.59-3.68c3.31-2.45,4.97-5.86,4.97-10.23c0-2.89-0.86-5.46-2.58-7.71
		c-1.72-2.24-5.33-5.11-10.82-8.59c-4.41-2.81-7.66-5.37-9.75-7.68c-2.1-2.31-3.7-4.83-4.81-7.58c-1.11-2.75-1.67-5.78-1.67-9.09
		c0-5.37,1.29-10.13,3.87-14.28c2.58-4.15,6.23-7.36,10.95-9.63s10.04-3.4,15.95-3.4c8.6,0,16.59,1.93,23.97,5.79l-5.41,12.02
		c-6.75-3.27-12.94-4.91-18.56-4.91c-4.57,0-8.24,1.23-11.01,3.68s-4.15,5.65-4.15,9.6c0,1.97,0.31,3.7,0.94,5.19
		c0.63,1.49,1.6,2.87,2.93,4.15c1.32,1.28,4.14,3.28,8.46,6.01c6.5,4.07,10.99,8,13.47,11.8
		C954.15,258.3,955.38,262.65,955.38,267.56z"/>
	<path class="st2" d="M969.67,224.9h14.6l3.96,33.41c0.38,2.6,0.71,6.26,1.01,10.98c0.29,4.72,0.44,8.53,0.44,11.42h0.38
		c3.61-9.02,6.44-15.58,8.5-19.7l18.44-36.12h15.98l-43.29,80.55c-3.78,6.92-7.89,11.99-12.33,15.2c-4.45,3.21-9.67,4.81-15.67,4.81
		c-3.19,0-6.19-0.4-9-1.2v-11.83c3.15,0.67,5.77,1.01,7.87,1.01c3.1,0,5.92-0.91,8.43-2.74c2.52-1.82,5.12-5.09,7.8-9.79l3.21-5.79
		L969.67,224.9z"/>
	<path class="st2" d="M1075.76,273.1c0,7.26-2.48,12.85-7.42,16.77c-4.95,3.92-11.83,5.88-20.64,5.88c-7.97,0-14.72-1.4-20.26-4.22
		v-12.77c6.42,3.78,12.96,5.66,19.63,5.66c4.07,0,7.36-0.84,9.88-2.52c2.52-1.68,3.78-3.96,3.78-6.86c0-2.14-0.72-3.97-2.17-5.51
		c-1.45-1.53-4.42-3.58-8.9-6.14c-5.24-2.81-8.95-5.67-11.11-8.59c-2.16-2.92-3.24-6.37-3.24-10.35c0-6.5,2.24-11.6,6.73-15.29
		c4.49-3.69,10.55-5.54,18.19-5.54c8.22,0,15.48,1.76,21.77,5.29l-4.78,11.08c-5.87-3.19-11.45-4.78-16.74-4.78
		c-3.06,0-5.55,0.69-7.46,2.08c-1.91,1.38-2.86,3.31-2.86,5.79c0,1.89,0.69,3.57,2.08,5.03c1.38,1.47,4.22,3.36,8.5,5.66
		c4.41,2.48,7.53,4.59,9.38,6.36c1.85,1.76,3.25,3.68,4.22,5.76S1075.76,270.37,1075.76,273.1z"/>
	<path class="st2" d="M1113.2,283.79c2.85,0,6.02-0.65,9.5-1.95v11.2c-1.47,0.71-3.46,1.34-5.98,1.89
		c-2.52,0.54-5.03,0.82-7.55,0.82c-11.5,0-17.24-5.18-17.24-15.54c0-2.39,0.33-5.14,1.01-8.24l7.61-35.87h-10.19l1.32-6.92
		l11.96-5.16l8.12-14.6h9.19l-3.27,15.48h17.56l-2.46,11.2h-17.43l-7.68,35.99c-0.55,2.31-0.82,4.24-0.82,5.79
		c0,1.8,0.52,3.24,1.57,4.31S1111.06,283.79,1113.2,283.79z"/>
	<path class="st2" d="M1164.11,295.75c-8.27,0-14.72-2.33-19.35-6.98c-4.64-4.66-6.95-11.16-6.95-19.51
		c0-8.31,1.63-16.04,4.88-23.19c3.25-7.15,7.66-12.68,13.21-16.58c5.56-3.9,11.78-5.85,18.66-5.85c6.75,0,12.01,1.52,15.76,4.56
		c3.75,3.04,5.63,7.35,5.63,12.93c0,7.64-3.49,13.6-10.48,17.9c-6.99,4.3-16.94,6.45-29.86,6.45h-2.71l-0.13,1.95v1.83
		c0,4.66,1.18,8.31,3.56,10.95c2.37,2.64,5.9,3.96,10.6,3.96c3.02,0,6.02-0.4,9-1.2c2.98-0.8,6.5-2.16,10.57-4.09v11.77
		c-4.03,1.85-7.73,3.16-11.11,3.93C1172.03,295.36,1168.26,295.75,1164.11,295.75z M1173.68,234.96c-4.03,0-7.81,1.8-11.36,5.41
		c-3.54,3.61-6.09,8.37-7.65,14.28h1.83c7.89,0,14.05-1.12,18.5-3.37c4.45-2.24,6.67-5.42,6.67-9.53c0-2.14-0.67-3.81-2.01-5
		C1178.31,235.56,1176.32,234.96,1173.68,234.96z"/>
	<path class="st2" d="M1250.32,223.64c9.23,0,14.56,4.93,15.98,14.79h0.5c3.15-4.87,6.72-8.55,10.73-11.04
		c4.01-2.5,8.17-3.74,12.49-3.74c5.58,0,9.83,1.6,12.74,4.81c2.92,3.21,4.37,7.73,4.37,13.56c0,2.69-0.46,6.48-1.38,11.39
		l-8.81,41.09h-14.79l9-42.29c0.8-3.98,1.2-6.77,1.2-8.37c0-5.41-2.54-8.12-7.61-8.12c-4.53,0-8.76,2.6-12.68,7.8
		c-3.92,5.2-6.79,12.1-8.59,20.7l-6.36,30.27h-14.79l9-42.29c0.71-3.44,1.07-6.1,1.07-7.99c0-5.66-2.45-8.5-7.36-8.5
		c-4.62,0-8.88,2.66-12.81,7.99c-3.92,5.33-6.83,12.42-8.72,21.27l-6.17,29.51h-14.85l14.85-69.6h11.58l-1.32,12.9h0.57
		C1234.38,228.36,1241.76,223.64,1250.32,223.64z"/>
	<path class="st2" d="M1363.21,273.1c0,7.26-2.48,12.85-7.42,16.77c-4.95,3.92-11.83,5.88-20.64,5.88c-7.97,0-14.72-1.4-20.26-4.22
		v-12.77c6.42,3.78,12.96,5.66,19.63,5.66c4.07,0,7.36-0.84,9.88-2.52c2.52-1.68,3.78-3.96,3.78-6.86c0-2.14-0.72-3.97-2.17-5.51
		c-1.45-1.53-4.42-3.58-8.9-6.14c-5.24-2.81-8.95-5.67-11.11-8.59c-2.16-2.92-3.24-6.37-3.24-10.35c0-6.5,2.24-11.6,6.73-15.29
		c4.49-3.69,10.55-5.54,18.19-5.54c8.22,0,15.48,1.76,21.77,5.29l-4.78,11.08c-5.87-3.19-11.45-4.78-16.74-4.78
		c-3.06,0-5.55,0.69-7.46,2.08c-1.91,1.38-2.86,3.31-2.86,5.79c0,1.89,0.69,3.57,2.08,5.03c1.38,1.47,4.22,3.36,8.5,5.66
		c4.41,2.48,7.53,4.59,9.38,6.36c1.85,1.76,3.25,3.68,4.22,5.76S1363.21,270.37,1363.21,273.1z"/>
</g>
</svg>
